<svg xmlns="http://www.w3.org/2000/svg" width="27.981" height="37.896" viewBox="0 0 27.981 37.896">
  <g id="Group_1" data-name="Group 1" transform="translate(-251 -630)">
    <path id="Path_80683" data-name="Path 80683" d="M1382.59,2019.61a13.337,13.337,0,0,1,6.672,6.907v-7.748h-6.672Z" transform="translate(-1110.285 -1380.187)" fill="#ef6000"/>
    <path id="Path_80684" data-name="Path 80684" d="M1389.26,1800.03a3.336,3.336,0,1,1-3.336-3.336,3.336,3.336,0,0,1,3.336,3.336" transform="translate(-1110.285 -1166.694)" fill="#ef6000"/>
    <path id="Path_80685" data-name="Path 80685" d="M842.117,2074.09a7.75,7.75,0,0,1-4.508-7.814,7.669,7.669,0,0,1,6.227-6.5,7.583,7.583,0,0,1,7.876,4.306c1.933,4.372-.61,10.175,1.806,14.063a8.032,8.032,0,0,0,5.1,3.183c.381.061.41.1.41-.277h0c.042-3.773,0,0,.079-10.088.02-2.549.022-6.5-.846-8.9a12.676,12.676,0,0,0-4.664-5.9,14.862,14.862,0,0,0-11.737-2.378,14.119,14.119,0,0,0-9.4,7.386c-3.709,7.533.724,17.21,8.635,19.652a13.813,13.813,0,0,0,11.384-1.562c-1.52-2.113-1.592-4.738-1.475-7.377a7.979,7.979,0,0,1-8.885,2.208" transform="translate(-580.131 -1413.515)" fill="#005293"/>
  </g>
</svg>
